<?xml version="1.0" encoding="UTF-8" standalone="no"?>
<!-- Created with Inkscape (http://www.inkscape.org/) -->
<svg
   xmlns:svg="http://www.w3.org/2000/svg"
   xmlns="http://www.w3.org/2000/svg"
   version="1.0"
   width="338.10269"
   height="262.58347"
   id="svg2297">
  <defs
     id="defs2299" />
  <g
     transform="translate(-136.66295,-232.49902)"
     id="layer1">
    <g
       transform="matrix(-0.801547,0,0,0.801547,558.84238,86.410221)"
       style="display:inline"
       id="g16579">
      <g
         transform="matrix(0.966627,0,0,0.966627,6.478792,13.1906)"
         id="g17441">
        <path
           d="M 188.06207,422.81123 C 188.06207,422.81123 186.06207,409.56123 188.31207,406.31123 C 190.56207,403.06123 199.56207,404.56123 201.31207,406.56123 C 203.06207,408.56123 201.81207,426.81123 201.81207,426.81123 L 188.06207,422.81123 z "
           style="fill:#fcef46;fill-opacity:1;fill-rule:evenodd;stroke:#000000;stroke-width:3;stroke-linecap:butt;stroke-linejoin:miter;stroke-miterlimit:4;stroke-dasharray:none;stroke-opacity:1"
           id="path2174" />
        <path
           d="M 215.06207,427.31123 C 215.06207,427.31123 213.06207,414.06123 215.31207,410.81123 C 217.56207,407.56123 226.56207,409.06123 228.31207,411.06123 C 230.06207,413.06123 228.81207,431.31123 228.81207,431.31123 L 215.06207,427.31123 z "
           style="fill:#fcef46;fill-opacity:1;fill-rule:evenodd;stroke:#000000;stroke-width:3;stroke-linecap:butt;stroke-linejoin:miter;stroke-miterlimit:4;stroke-dasharray:none;stroke-opacity:1"
           id="path2176" />
        <path
           d="M 348.06207,433.81123 C 348.06207,433.81123 346.06207,420.56123 348.31207,417.31123 C 350.56207,414.06123 359.56207,415.56123 361.31207,417.56123 C 363.06207,419.56123 361.81207,437.81123 361.81207,437.81123 L 348.06207,433.81123 z "
           style="fill:#fcef3f;fill-opacity:1;fill-rule:evenodd;stroke:#000000;stroke-width:3;stroke-linecap:butt;stroke-linejoin:miter;stroke-miterlimit:4;stroke-dasharray:none;stroke-opacity:1"
           id="path2178" />
        <path
           d="M 373.31207,433.06123 C 373.31207,433.06123 371.31207,419.81123 373.56207,416.56123 C 375.81207,413.31123 384.81207,414.81123 386.56207,416.81123 C 388.31207,418.81123 387.06207,437.06123 387.06207,437.06123 L 373.31207,433.06123 z "
           style="fill:#fcef3f;fill-opacity:1;fill-rule:evenodd;stroke:#000000;stroke-width:3;stroke-linecap:butt;stroke-linejoin:miter;stroke-miterlimit:4;stroke-dasharray:none;stroke-opacity:1"
           id="path2180" />
        <path
           d="M 103.31207,377.06122 C 108.31207,417.06122 119.6464,472.60544 135.31207,488.56122 C 148.81207,502.31122 168.80828,512.06122 177.06207,512.06122 C 202.06207,512.06122 412.06207,512.06122 412.06207,512.06122 C 427.06207,512.81122 452.47487,484.63483 467.56207,462.31122 C 482.57137,440.10293 485.35217,425.3723 493.31207,402.06122 C 493.31207,402.06122 434.50867,431.56122 313.31207,432.06122 C 192.36419,432.56019 163.31207,408.06122 138.31207,398.06122 L 138.31207,387.06122 L 103.31207,377.06122 z "
           style="fill:#fcef3c;fill-opacity:1;fill-rule:evenodd;stroke:#000000;stroke-width:3;stroke-linecap:butt;stroke-linejoin:miter;stroke-miterlimit:4;stroke-dasharray:none;stroke-opacity:1"
           id="path2164" />
        <path
           d="M 509.31207,381.31123 L 532.31207,383.06123 C 532.31207,383.06123 519.88927,399.05323 519.67217,415.80116 C 519.30537,444.09964 519.06207,478.37124 519.06207,483.56123 C 519.06207,492.07248 508.90547,512.31123 492.56207,512.31123 C 476.46337,512.31123 440.81207,512.31123 440.81207,512.31123 C 456.78787,494.05432 466.06167,481.75308 480.06207,455.06123 C 494.00887,428.4715 509.31207,381.31123 509.31207,381.31123 z "
           style="fill:#fcef3f;fill-opacity:1;fill-rule:evenodd;stroke:#000000;stroke-width:3;stroke-linecap:butt;stroke-linejoin:miter;stroke-miterlimit:4;stroke-dasharray:none;stroke-opacity:1"
           id="path2166" />
        <path
           d="M 117.06093,380.76526 L 318.47537,183.36493 L 465.52846,411.28934"
           style="fill:none;fill-rule:evenodd;stroke:#000000;stroke-width:3;stroke-linecap:butt;stroke-linejoin:miter;stroke-miterlimit:4;stroke-dasharray:none;stroke-opacity:1;display:inline"
           id="path7218" />
        <path
           d="M 534.56207,394.56123 C 530.38447,393.69919 508.31207,392.31123 494.31207,388.31123 C 480.31207,384.31123 460.06207,374.56123 444.81207,375.31123 C 429.56207,376.06123 415.56206,375.31123 415.81206,384.06123 C 416.06206,393.06123 455.90667,391.77599 461.56207,392.06123 C 467.19937,392.34556 484.49287,398.29186 490.81207,400.06123 C 497.06207,401.81123 527.31757,406.83638 532.06207,407.56123 C 536.56207,408.24873 538.49957,395.37373 534.56207,394.56123 z "
           style="fill:#fcef3f;fill-opacity:1;fill-rule:evenodd;stroke:#000000;stroke-width:3;stroke-linecap:butt;stroke-linejoin:miter;stroke-miterlimit:4;stroke-dasharray:none;stroke-opacity:1"
           id="path2168" />
        <path
           d="M 459.06207,475.56123 C 451.19987,470.86929 443.75007,479.14516 450.56207,484.81123 C 457.24957,490.37373 481.06207,505.43623 486.81207,508.81123 C 492.74897,512.29596 502.63737,500.30007 496.56207,496.31123 C 490.37457,492.24873 466.81207,480.18623 459.06207,475.56123 z "
           style="fill:#fcef3f;fill-opacity:1;fill-rule:evenodd;stroke:#000000;stroke-width:3;stroke-linecap:butt;stroke-linejoin:miter;stroke-miterlimit:4;stroke-dasharray:none;stroke-opacity:1"
           id="path2170" />
        <path
           d="M 488.31207,420.81123 C 483.44157,417.82403 478.34297,425.3059 483.56207,429.31123 C 488.93707,433.43623 499.37457,440.43623 504.81207,444.31123 C 510.08507,448.06902 516.54887,437.25124 511.06207,434.06123 C 505.68707,430.93623 492.99957,423.68623 488.31207,420.81123 z "
           style="fill:#fcef3f;fill-opacity:1;fill-rule:evenodd;stroke:#000000;stroke-width:3;stroke-linecap:butt;stroke-linejoin:miter;stroke-miterlimit:4;stroke-dasharray:none;stroke-opacity:1"
           id="path2172" />
        <path
           d="M 123.7697,425.7817 C 123.7697,425.7817 188.82352,463.25836 312.5672,464.31902 C 436.31087,465.37968 477.67667,416.58931 477.67667,416.58931 C 477.67667,416.58931 440.90707,479.52182 431.00757,488.7142 C 421.10809,497.90659 394.23804,501.08857 394.23804,501.08857 C 394.23804,501.08857 204.73342,501.79568 194.83393,501.79568 C 184.93443,501.79568 176.44915,503.20989 151.34686,487.65354 C 126.24457,472.09719 118.99673,393.34318 118.99673,393.34318 L 138.53055,398.20453"
           style="fill:none;fill-opacity:0.75;fill-rule:evenodd;stroke:#000000;stroke-width:3;stroke-linecap:butt;stroke-linejoin:miter;stroke-miterlimit:4;stroke-dasharray:none;stroke-opacity:1"
           id="path3132" />
        <path
           d="M 132.25498,458.30861 C 132.25498,458.30861 205.08698,495.43172 305.14258,494.37106 C 405.19819,493.3104 443.73547,470.32943 443.73547,470.32943"
           style="fill:none;fill-opacity:0.75;fill-rule:evenodd;stroke:#000000;stroke-width:3;stroke-linecap:butt;stroke-linejoin:miter;stroke-miterlimit:4;stroke-dasharray:none;stroke-opacity:1"
           id="path3134" />
        <path
           d="M 157.53085,406.49096 L 318.18699,179.72915"
           style="fill:#ffff00;fill-rule:evenodd;stroke:#000000;stroke-width:3;stroke-linecap:butt;stroke-linejoin:miter;stroke-miterlimit:4;stroke-dasharray:none;stroke-opacity:1;display:inline"
           id="path7220" />
        <path
           d="M 312.03703,182.03537 L 312.03703,432.64601 L 325.87442,431.87726 L 325.49005,181.93929 C 322.72287,174.13235 313.6831,174.97094 312.03703,182.03537 z "
           style="fill:#fcef3c;fill-opacity:1;fill-rule:evenodd;stroke:#000000;stroke-width:3;stroke-linecap:butt;stroke-linejoin:miter;stroke-miterlimit:4;stroke-dasharray:none;stroke-opacity:1;display:inline"
           id="path7216" />
        <path
           d="M 207.48781,255.06609 L 416.58625,184.34161 C 419.93703,184.2399 421.00422,188.87591 418.89248,190.49156 L 209.79404,261.21604 C 206.83721,261.49679 205.20631,256.66076 207.48781,255.06609 z "
           style="fill:#fcef3c;fill-opacity:1;fill-rule:evenodd;stroke:#000000;stroke-width:3;stroke-linecap:butt;stroke-linejoin:miter;stroke-miterlimit:4;stroke-dasharray:none;stroke-opacity:1;display:inline"
           id="path7222" />
        <path
           d="M 261.29991,422.65233 C 306.54749,368.05439 378.88932,349.81341 451.17776,361.03191 C 389.3004,299.98757 376.39858,254.22108 415.33704,184.82208 L 210.94716,253.91297 C 202.38277,311.67118 210.4934,370.15625 261.29991,422.65233 z "
           style="fill:#e20909;fill-opacity:1;fill-rule:evenodd;stroke:#000000;stroke-width:3;stroke-linecap:butt;stroke-linejoin:miter;stroke-miterlimit:4;stroke-dasharray:none;stroke-opacity:1;display:inline"
           id="path7224" />
      </g>
    </g>
  </g>
</svg>
